<svg width="30" height="34" viewBox="0 0 30 34" fill="none" xmlns="http://www.w3.org/2000/svg" data-sentry-element="svg" data-sentry-source-file="RaydiumLogoOutline.tsx" data-sentry-component="RaydiumLogoOutline"><path d="M27.9823 12.8092V24.5252L14.9499 32.0476L1.91028 24.5252V9.4732L14.9499 1.94354L24.9659 7.72887L26.4777 6.85671L14.9499 0.199219L0.398438 8.60104V25.3974L14.9499 33.7992L29.5014 25.3974V11.9371L27.9823 12.8092Z" fill="url(#paint0_linear_17707_28687)" data-sentry-element="path" data-sentry-source-file="RaydiumLogoOutline.tsx"></path><path d="M11.3012 24.5325H9.12061V17.2209H16.3891C17.0768 17.2132 17.7338 16.9352 18.218 16.4469C18.7023 15.9586 18.9748 15.2993 18.9767 14.6117C18.9806 14.2716 18.915 13.9344 18.7837 13.6206C18.6525 13.3069 18.4584 13.0233 18.2135 12.7874C17.9765 12.5439 17.6927 12.3507 17.3792 12.2196C17.0657 12.0884 16.7289 12.022 16.3891 12.0243H9.12061V9.80025H16.3964C17.6702 9.80788 18.8896 10.3172 19.7903 11.2179C20.6911 12.1186 21.2005 13.338 21.2081 14.6117C21.2159 15.5866 20.9185 16.5396 20.3577 17.3372C19.8415 18.1002 19.114 18.6963 18.2644 19.0524C17.423 19.3192 16.5449 19.4517 15.6622 19.4449H11.3012V24.5325Z" fill="url(#paint1_linear_17707_28687)" data-sentry-element="path" data-sentry-source-file="RaydiumLogoOutline.tsx"></path><path d="M21.1572 24.3508H18.6132L16.6507 20.9276C17.4272 20.8801 18.193 20.7235 18.9258 20.4624L21.1572 24.3508Z" fill="url(#paint2_linear_17707_28687)" data-sentry-element="path" data-sentry-source-file="RaydiumLogoOutline.tsx"></path><path d="M26.4632 10.3744L27.9678 11.2102L29.4723 10.3744V8.6083L27.9678 7.73614L26.4632 8.6083V10.3744Z" fill="url(#paint3_linear_17707_28687)" data-sentry-element="path" data-sentry-source-file="RaydiumLogoOutline.tsx"></path><defs data-sentry-element="defs" data-sentry-source-file="RaydiumLogoOutline.tsx"><linearGradient id="paint0_linear_17707_28687" x1="29.4757" y1="8.61027" x2="-4.85487" y2="22.8491" gradientUnits="userSpaceOnUse" data-sentry-element="linearGradient" data-sentry-source-file="RaydiumLogoOutline.tsx"><stop stop-color="#7748FC" data-sentry-element="stop" data-sentry-source-file="RaydiumLogoOutline.tsx"></stop><stop offset="1" stop-color="#39D0D8" data-sentry-element="stop" data-sentry-source-file="RaydiumLogoOutline.tsx"></stop></linearGradient><linearGradient id="paint1_linear_17707_28687" x1="29.4757" y1="8.61027" x2="-4.85487" y2="22.8491" gradientUnits="userSpaceOnUse" data-sentry-element="linearGradient" data-sentry-source-file="RaydiumLogoOutline.tsx"><stop stop-color="#7748FC" data-sentry-element="stop" data-sentry-source-file="RaydiumLogoOutline.tsx"></stop><stop offset="1" stop-color="#39D0D8" data-sentry-element="stop" data-sentry-source-file="RaydiumLogoOutline.tsx"></stop></linearGradient><linearGradient id="paint2_linear_17707_28687" x1="29.4757" y1="8.61027" x2="-4.85487" y2="22.8491" gradientUnits="userSpaceOnUse" data-sentry-element="linearGradient" data-sentry-source-file="RaydiumLogoOutline.tsx"><stop stop-color="#7748FC" data-sentry-element="stop" data-sentry-source-file="RaydiumLogoOutline.tsx"></stop><stop offset="1" stop-color="#39D0D8" data-sentry-element="stop" data-sentry-source-file="RaydiumLogoOutline.tsx"></stop></linearGradient><linearGradient id="paint3_linear_17707_28687" x1="29.4757" y1="8.61027" x2="-4.85487" y2="22.8491" gradientUnits="userSpaceOnUse" data-sentry-element="linearGradient" data-sentry-source-file="RaydiumLogoOutline.tsx"><stop stop-color="#7748FC" data-sentry-element="stop" data-sentry-source-file="RaydiumLogoOutline.tsx"></stop><stop offset="1" stop-color="#39D0D8" data-sentry-element="stop" data-sentry-source-file="RaydiumLogoOutline.tsx"></stop></linearGradient></defs></svg>